<svg width="511" height="489" viewBox="0 0 511 489" fill="none" xmlns="http://www.w3.org/2000/svg">
<path id="star" d="M509.645 185.836C506.3 175.489 497.122 168.14 486.264 167.161L338.775 153.769L280.454 17.2631C276.154 7.25898 266.361 0.783203 255.479 0.783203C244.598 0.783203 234.804 7.25898 230.504 17.2865L172.183 153.769L24.6711 167.161C13.8327 168.163 4.67848 175.489 1.31388 185.836C-2.05071 196.183 1.05657 207.532 9.25558 214.687L120.739 312.459L87.8655 457.269C85.46 467.916 89.5926 478.922 98.4271 485.308C103.176 488.739 108.731 490.486 114.334 490.486C119.164 490.486 123.956 489.184 128.256 486.611L255.479 410.574L382.656 486.611C391.962 492.209 403.693 491.698 412.508 485.308C421.346 478.903 425.475 467.893 423.07 457.269L390.196 312.459L501.68 214.706C509.879 207.532 513.009 196.203 509.645 185.836Z" fill="#E5CEDB"/>
</svg>
